# xmcd CD database file
#
# Track frame offsets:
#	150
#	13613
#	43833
#	73986
#	98833
#	124647
#	134696
#	154547
#	166220
#	171932
#	193046
#
# Disc length: 2889 seconds
#
# Revision: 0
# Processed by: cddbd v1.5.2PL0 Copyright (c) Steve Scherf et al.
# Submitted via: CDex 1.51
#
DISCID=970b470b
DTITLE=Cyro Baptista - Banquet Of The Spirits
DYEAR=1900
DGENRE=Jazz
TTITLE0=Tutuboli
TTITLE1=Bird Boy
TTITLE2=Macunaima
TTITLE3=Mumakata
TTITLE4=Nana and Tom
TTITLE5=Tupinambas
TTITLE6=Argan
TTITLE7=Typing With Oswald De Andrade
TTITLE8=Lamento Mourisco
TTITLE9=Malinye
TTITLE10=Anthropofagia
EXTD=
EXTT0=
EXTT1=
EXTT2=
EXTT3=
EXTT4=
EXTT5=
EXTT6=
EXTT7=
EXTT8=
EXTT9=
EXTT10=
PLAYORDER=
